 <svg
            xmlns="http://www.w3.org/2000/svg"
            width="206"
            height="49"
            fill="none"
          >
            <g clipPath="url(#A)">
              <g fill="#2f3d56">
                <path d="M84.318 36.955c0 .454-.372.806-.802.806h-2.648v9.305c0 .52-.416.96-.9.96-.503 0-.92-.44-.92-.96V37.76H76.4a.8.8 0 0 1-.802-.806c0-.454.372-.806.802-.806h7.105a.8.8 0 0 1 .802.806zm11.33 9.37a.8.8 0 0 1 .802.791c0 .454-.372.806-.802.806H89.68a.96.96 0 0 1-.992-.996V37.14a.96.96 0 0 1 .992-.996h5.8a.8.8 0 0 1 .802.791c0 .454-.372.806-.802.806h-4.975v3.5h3.42a.78.78 0 0 1 .788.755.79.79 0 0 1-.788.777h-3.42v3.553h5.143v-.007zm14.02-.183c0 .418-.284.725-.788 1.062-.75.52-1.73.843-2.918.843a6 6 0 0 1-5.894-6.008 6 6 0 0 1 5.894-6.008c1.2 0 2.16.322 2.918.843.504.337.788.637.788 1.062 0 .52-.4.828-.84.828-.35 0-.583-.17-.802-.337a3.46 3.46 0 0 0-2.043-.659c-2.093 0-4.02 1.817-4.02 4.27s1.926 4.27 4.02 4.27c.94 0 1.678-.374 2.043-.66.22-.17.452-.337.802-.337.438 0 .84.308.84.828zm12.803-10.045c.503 0 .9.418.9.923v10.03c0 .506-.387.923-.9.923a.92.92 0 0 1-.92-.923v-4.125h-5.6v4.125c0 .506-.4.923-.9.923a.92.92 0 0 1-.92-.923V37.02c0-.505.4-.923.92-.923a.92.92 0 0 1 .9.923v4.345h5.6V37.02a.92.92 0 0 1 .92-.923zm15.296.938v10.096a.81.81 0 0 1-.854.872c-.386 0-.686-.183-.92-.535l-5.916-8.03v7.62c0 .506-.416.945-.905.945-.517 0-.94-.44-.94-.945V36.97a.81.81 0 0 1 .854-.872c.387 0 .686.183.92.535l5.916 8.03v-7.62c0-.506.416-.945.905-.945a.95.95 0 0 1 .941.938zm16.37 5.004c0 3.553-2.896 6.008-5.828 6.008s-5.828-2.454-5.828-6.008 2.895-6.008 5.828-6.008 5.828 2.454 5.828 6.008zm-9.767 0c0 2.557 1.896 4.27 3.94 4.27s3.94-1.714 3.94-4.27-1.875-4.293-3.94-4.293c-2.043 0-3.94 1.73-3.94 4.293zm20.98 4.272c.415 0 .802.352.802.806s-.387.806-.802.806h-5.515a.96.96 0 0 1-.992-.996v-9.9c0-.52.4-.945.92-.945.5 0 .9.418.9.945v9.276h4.698zm15.515.842c0 .454-.386.842-.9.842a.93.93 0 0 1-.868-.572l-1.02-2.403h-5.113l-1.022 2.403c-.153.337-.466.572-.868.572-.503 0-.9-.388-.9-.842a1.21 1.21 0 0 1 .117-.491l4.34-9.913c.183-.44.453-.674.868-.674s.7.234.9.674l4.34 9.913c.065.14.116.322.116.5zm-3.406-3.583l-1.94-4.543-1.925 4.543h3.866zm16.202.975c0 2.073-1.5 3.385-4.326 3.385h-3.027a.96.96 0 0 1-.993-.996V37.14a.96.96 0 0 1 .993-.996h2.917c2.182 0 3.684 1.062 3.684 2.945 0 1-.452 1.883-1.656 2.322 1.773.63 2.408 1.75 2.408 3.136zm-6.53-3.67h2.093c1.226 0 1.912-.57 1.912-1.583 0-.996-.686-1.597-1.912-1.597h-2.093v3.18zm4.77 3.517c0-1.158-.752-2.088-2.56-2.088h-2.2v4.074h2.2c1.8 0 2.56-.806 2.56-1.985zm13.152-6.88c.248.322.387.572.387.843 0 .403-.32.725-.75.725-.32 0-.584-.17-.773-.388-.467-.623-.993-1.04-1.94-1.04-1.2 0-1.926.608-1.926 1.53 0 .74.467 1.282 1.56 1.7l.825.322c2.363.9 3.567 1.766 3.567 3.465 0 2.235-2.196 3.385-4.136 3.385-1.423 0-2.882-.623-3.633-1.78-.13-.183-.35-.5-.35-.857 0-.403.248-.8.75-.8.4 0 .686.25.868.535.57.872 1.46 1.26 2.364 1.26 1.036 0 2.276-.44 2.276-1.75 0-1.062-.788-1.48-2.08-1.985l-.905-.352c-1.678-.66-2.918-1.517-2.918-3.165 0-1.905 1.642-3.128 3.67-3.128 1.54-.007 2.5.66 3.144 1.473z" />
              </g>
              <g fill="#136fad">
                <path d="M107.778 3.714v24.683a3 3 0 0 1-2.998 2.967c-1.583 0-2.9-1.377-2.9-2.967V13.95l-7.668 14.5c-.554 1.033-1.495 1.634-2.524 1.634-.985 0-1.926-.6-2.48-1.634l-7.7-14.492v14.448c0 1.6-1.284 2.967-2.867 2.967-1.67 0-2.998-1.377-2.998-2.967V3.714c0-1.8 1.37-2.7 2.655-2.7 1.196 0 2.312.9 2.9 1.934l10.5 18.968 10.534-18.968c.598-1.033 1.714-1.934 2.9-1.934 1.284.007 2.656.908 2.656 2.7zM142.332 16.2c0 9.078-7.404 15.35-14.947 15.35-7.5 0-14.903-6.28-14.903-15.35S119.886.842 127.385.842c7.536-.007 14.947 6.272 14.947 15.35zm-23.8 0c0 5.9 4.15 9.847 8.863 9.847 4.756 0 8.907-3.956 8.907-9.847s-4.114-9.847-8.907-9.847c-4.712 0-8.863 3.956-8.863 9.847zm57.924 0c0 9.078-7.404 15.35-14.947 15.35-7.5 0-14.903-6.28-14.903-15.35S154 .842 161.5.842c7.536-.007 14.947 6.272 14.947 15.35zm-23.8 0c0 5.9 4.15 9.847 8.863 9.847 4.757 0 8.907-3.956 8.907-9.847s-4.107-9.847-8.907-9.847c-4.705 0-8.863 3.956-8.863 9.847zM206 3.978V28.66c0 1.846-1.196 2.835-2.7 2.835-1.24 0-2.225-.645-2.998-1.722l-13.276-18.148V28.53c0 1.6-1.284 2.967-2.867 2.967-1.67 0-2.998-1.377-2.998-2.967V3.802c0-1.8 1.196-2.8 2.743-2.8 1.24 0 2.225.645 2.954 1.678l13.276 18.192V3.978c0-1.6 1.328-2.967 2.9-2.967 1.67 0 2.954 1.37 2.954 2.967z" />
              </g>
              <path
                d="M65.36 46.21V2.74A2.74 2.74 0 0 0 62.624 0h-43.17c-2.4 0-3.604 2.91-1.904 4.616L60.757 48.12c1.692 1.707 4.603.505 4.603-1.912z"
                fill="#70bde9"
              />
              <path
                d="M62.66 0H2.932C.76 0-.518 2.447.715 4.242L30.58 47.828c1.072 1.56 3.37 1.56 4.442 0L64.878 4.242C66.104 2.447 64.827 0 62.66 0z"
                fill="#3495cc"
              />
              <path
                d="M0 46.21V2.704C0 1.21 1.204 0 2.692 0h43.206c2.4 0 3.604 2.91 1.91 4.616L4.603 48.12C2.903 49.828 0 48.62 0 46.21z"
                fill="#146fac"
              />
            </g>
             <defs>
              <clipPath id="A">
                <path fill="#fff" d="M0 0h206v49H0z" />
              </clipPath>
            </defs>
          </svg>